# xmcd
#
# Track frame offsets:
#	150
#	19504
#	33418
#	45098
#	62173
#	73630
#	93476
#	109102
#	125555
#	143858
#	155081
#
# Disc length: 2334 seconds
#
# Revision: 1
# Processed by: cddbd v1.5.1PL0 Copyright (c) Steve Scherf et al.
# Submitted via: audiograbber 1.81.03
#
DISCID=91091c0b
DTITLE=The Freemans - Highway
DYEAR=1900
DGENRE=
TTITLE0=He'd Have to Walk Through The Blood
TTITLE1=Master of Grace
TTITLE2=He Brought Me Out
TTITLE3=Apple of His Eye
TTITLE4=365 Days
TTITLE5=At Jesus Coming
TTITLE6=When He Loves Me Most
TTITLE7=The Road With Jesus
TTITLE8=Should've Been Loving You
TTITLE9=Victory Side
TTITLE10=The Lighthouse
EXTD=
EXTT0=
EXTT1=
EXTT2=
EXTT3=
EXTT4=
EXTT5=
EXTT6=
EXTT7=
EXTT8=
EXTT9=
EXTT10=
PLAYORDER=
